custom-analysis
version=1
nRows=7
nColumns=42
inDegrees=no

This file contains tibia displacement and acting force.

Units are S.I. units (seconds, meters, Newtons, ...)
Angles are in degrees.

endheader
time	APT	SIT	knee_angle	aACL_R_force	pACL_R_force	aPCL_R_force	pPCL_R_force	aMCL_R_force	mMCL_R_force	pMCL_R_force	aLCL_R_force	mLCL_R_force	pLCL_R_force	aACL_R_length	pACL_R_length	aPCL_R_length	pPCL_R_length	aMCL_R_length	mMCL_R_length	pMCL_R_length	aLCL_R_length	mLCL_R_length	pLCL_R_length	aACL_R_strain	pACL_R_strain	aPCL_R_strain	pPCL_R_strain	aMCL_R_strain	mMCL_R_strain	pMCL_R_strain	aLCL_R_strain	mLCL_R_strain	pLCL_R_strain	femur_lat_meniscii_force_r	femur_lat_meniscii_torque_r	femur_med_meniscii_force_r	femur_med_meniscii_torque_r	femur_lat_tibia_force_r	femur_lat_tibia_torque_r	femur_med_tibia_force_r	femur_med_tibia_torque_r
      0.73660284	      0.00669477	     -0.00063655	     60.00037120	     54.70465851	      7.95777873	    315.67948338	     11.12977659	     26.83759972	      0.27321247	      0.00000000	      0.00000000	      0.00000000	      0.00000000	      0.03440410	      0.02658692	      0.03350026	      0.03037967	      0.06175033	      0.06045384	      0.05694606	      0.05221922	      0.04731589	      0.04229964	      0.08511446	      0.02816136	      0.07734171	      0.00970044	      0.06416545	      0.01104372	     -0.06227667	     -0.06713407	     -0.15985323	     -0.19187125	    130.07969327	     47.87662280	    209.02925242	     82.84050604	      0.00000000	      0.00000000	    100.19586481	      1.52621518
      0.73696913	      0.00669489	     -0.00063686	     60.00037120	     54.72641618	      7.97787803	    315.73647397	     11.15368373	     26.83655722	      0.27602627	      0.00000000	      0.00000000	      0.00000000	      0.00000000	      0.03440445	      0.02658731	      0.03350057	      0.03037988	      0.06175008	      0.06045357	      0.05694579	      0.05222035	      0.04731703	      0.04230077	      0.08512555	      0.02817645	      0.07735150	      0.00970749	      0.06416117	      0.01103919	     -0.06228114	     -0.06711389	     -0.15983295	     -0.19184970	    129.96123534	     47.83296951	    209.03894538	     82.84445981	      0.00000000	      0.00000000	    100.23188748	      1.52692623
      0.73880054	      0.00669545	     -0.00063804	     60.00037120	     54.64967718	      7.87279405	    315.82549358	     10.91310235	     26.53499842	     -0.00348152	      0.00000000	      0.00000000	      0.00000000	      0.00000000	      0.03440603	      0.02658909	      0.03350171	      0.03038056	      0.06174848	      0.06045185	      0.05694406	      0.05222557	      0.04732231	      0.04230598	      0.08517547	      0.02824557	      0.07738824	      0.00973023	      0.06413354	      0.01101044	     -0.06230962	     -0.06702062	     -0.15973919	     -0.19175014	    129.61162819	     47.69947186	    207.69982761	     82.30921210	      0.00000000	      0.00000000	    100.65258315	      1.53387667
      0.74114795	      0.00669586	     -0.00063917	     60.00037120	     54.62950470	      7.84004004	    316.04013564	     10.97039805	     26.41043101	     -0.08799442	      0.00000000	      0.00000000	      0.00000000	      0.00000000	      0.03440765	      0.02659101	      0.03350291	      0.03038118	      0.06174602	      0.06044927	      0.05694147	      0.05223183	      0.04732865	      0.04231224	      0.08522639	      0.02831972	      0.07742670	      0.00975075	      0.06409127	      0.01096721	     -0.06235231	     -0.06690879	     -0.15962671	     -0.19163047	    129.84674782	     47.80119944	    207.92189323	     82.38598950	      0.00000000	      0.00000000	    101.33014185	      1.54500193
      0.74470103	      0.00669574	     -0.00064101	     60.00037120	     54.89909834	      8.09323204	    316.41771709	     11.08189647	     26.50791766	      0.04244797	      0.00000000	      0.00000000	      0.00000000	      0.00000000	      0.03441000	      0.02659399	      0.03350500	      0.03038241	      0.06174234	      0.06044543	      0.05693762	      0.05224130	      0.04733822	      0.04232174	      0.08530077	      0.02843489	      0.07749393	      0.00979159	      0.06402779	      0.01090306	     -0.06241570	     -0.06673975	     -0.15945679	     -0.19144906	    128.94359034	     47.44555875	    208.16369698	     82.48359239	      0.00000000	      0.00000000	    102.19188043	      1.55985612
      0.74576465	      0.00669581	     -0.00064160	     60.00037120	     54.95877143	      8.13950829	    316.50221557	     11.06526190	     26.49787097	      0.04153265	      0.00000000	      0.00000000	      0.00000000	      0.00000000	      0.03441093	      0.02659511	      0.03350556	      0.03038272	      0.06174130	      0.06044434	      0.05693651	      0.05224408	      0.04734103	      0.04232452	      0.08532995	      0.02847819	      0.07751213	      0.00980189	      0.06400986	      0.01088475	     -0.06243401	     -0.06669008	     -0.15940691	     -0.19139602	    128.66885116	     47.34610887	    208.23485643	     82.51152541	      0.00000000	      0.00000000	    102.43676993	      1.56401724
      0.74629646	      0.00669586	     -0.00064188	     60.00037120	     54.98436858	      8.15756566	    316.54217427	     11.05781585	     26.49123156	      0.03980269	      0.00000000	      0.00000000	      0.00000000	      0.00000000	      0.03441141	      0.02659569	      0.03350583	      0.03038286	      0.06174078	      0.06044379	      0.05693595	      0.05224545	      0.04734241	      0.04232588	      0.08534510	      0.02850052	      0.07752069	      0.00980651	      0.06400091	      0.01087560	     -0.06244319	     -0.06666559	     -0.15938232	     -0.19136989	    128.53458647	     47.29748411	    208.28543058	     82.53178176	      0.00000000	      0.00000000	    102.56193577	      1.56612238
